# xmcd
#
# Track frame offsets:
#	150
#	14989
#	28351
#	41773
#	57082
#	71237
#	87220
#	101694
#	115646
#	130248
#	142265
#	158609
#	172959
#	186709
#	200399
#	220718
#
# Disc length: 3138 seconds
#
# Revision: 1
# Processed by: cddbd v1.5.2PL0 Copyright (c) Steve Scherf et al.
# Submitted via: audiograbber 1.82.01
#
DISCID=f20c4010
DTITLE=koellner maritta - original
DYEAR=2006
DGENRE=koelsch
TTITLE0=im nächsten jahr komm'n wir alle wieder 2006
TTITLE1=kleine sünden sind gut für die liebe 2006
TTITLE2=& watzke tommy - mir han uns nit verlore 2006
TTITLE3=es war in altenahr 2003
TTITLE4=alte liebe macht flügel im bauch 2004
TTITLE5=ich bin för janix bang 2003
TTITLE6=mir dun  et alles nur für kölle 2005
TTITLE7=dat han mer uns verdeent 2005
TTITLE8=wer sich nit wehrt, endet am herd 1998
TTITLE9=hein, et es vorbei 2006
TTITLE10=hierod nie 1992
TTITLE11=fröher hammer nä jesaat 1999
TTITLE12=schatz, mer fahre fahrrad 2006
TTITLE13=takatakatak 2006
TTITLE14=denn et heimwih nimms de met 1993
TTITLE15=& jungen zillertaler - im nächsten jahr komm'n wir alle wieder 2006
EXTD=
EXTT0=
EXTT1=
EXTT2=
EXTT3=
EXTT4=
EXTT5=
EXTT6=
EXTT7=
EXTT8=
EXTT9=
EXTT10=
EXTT11=
EXTT12=
EXTT13=
EXTT14=
EXTT15=
PLAYORDER=
